<?xml version="1.0" encoding="UTF-8" standalone="no"?>
<!-- Created with Inkscape (http://www.inkscape.org/) -->

<svg
   xmlns:dc="http://purl.org/dc/elements/1.1/"
   xmlns:cc="http://creativecommons.org/ns#"
   xmlns:rdf="http://www.w3.org/1999/02/22-rdf-syntax-ns#"
   xmlns:svg="http://www.w3.org/2000/svg"
   xmlns="http://www.w3.org/2000/svg"
   xmlns:sodipodi="http://sodipodi.sourceforge.net/DTD/sodipodi-0.dtd"
   xmlns:inkscape="http://www.inkscape.org/namespaces/inkscape"
   width="297mm"
   height="150mm"
   viewBox="0 0 297 150"
   version="1.1"
   id="svg8"
   inkscape:version="0.92.5 (2060ec1f9f, 2020-04-08)"
   sodipodi:docname="xipha_logo.svg">
  <defs
     id="defs2" />
  <sodipodi:namedview
     id="base"
     pagecolor="#ffffff"
     bordercolor="#666666"
     borderopacity="1.0"
     inkscape:pageopacity="0.0"
     inkscape:pageshadow="2"
     inkscape:zoom="0.49497475"
     inkscape:cx="612.94934"
     inkscape:cy="320.60988"
     inkscape:document-units="mm"
     inkscape:current-layer="layer1"
     showgrid="false"
     inkscape:showpageshadow="false"
     inkscape:window-width="1325"
     inkscape:window-height="736"
     inkscape:window-x="41"
     inkscape:window-y="0"
     inkscape:window-maximized="1" />
  <metadata
     id="metadata5">
    <rdf:RDF>
      <cc:Work
         rdf:about="">
        <dc:format>image/svg+xml</dc:format>
        <dc:type
           rdf:resource="http://purl.org/dc/dcmitype/StillImage" />
        <dc:title></dc:title>
      </cc:Work>
    </rdf:RDF>
  </metadata>
  <g
     inkscape:label="Layer 1"
     inkscape:groupmode="layer"
     id="layer1"
     transform="translate(0,-147)">
    <rect
       id="rect3713"
       width="75.973213"
       height="6.4255953"
       x="36.966076"
       y="194.41644"
       style="stroke-width:0.26458332" />
    <rect
       id="rect3713-3"
       width="47.624996"
       height="6.4255953"
       x="52.727654"
       y="220.23232"
       style="stroke-width:0.20948344" />
    <rect
       id="rect3713-3-6"
       width="75.973213"
       height="6.4255953"
       x="37.608604"
       y="246.76598"
       style="stroke-width:0.26458332" />
    <g
       aria-label="Pha"
       transform="matrix(2.0000952,0,0,2.0000952,-756.10555,-331.38615)"
       style="font-style:normal;font-weight:normal;font-size:40px;line-height:1.25;font-family:sans-serif;letter-spacing:0px;word-spacing:0px;fill:#000000;fill-opacity:1;stroke:none"
       id="flowRoot3747">
      <path
         d="m 445.01367,266.03125 v 10.95703 h 4.96094 q 2.75391,0 4.25781,-1.42578 1.50391,-1.42578 1.50391,-4.0625 0,-2.61719 -1.50391,-4.04297 -1.5039,-1.42578 -4.25781,-1.42578 z m -3.94531,-3.24219 h 8.90625 q 4.90234,0 7.40234,2.22656 2.51953,2.20704 2.51953,6.48438 0,4.31641 -2.51953,6.52344 -2.5,2.20703 -7.40234,2.20703 h -4.96094 v 11.71875 h -3.94531 z"
         id="path18"
         inkscape:connector-curvature="0" />
      <path
         d="m 483.2168,278.74609 v 13.20313 h -3.59375 v -13.08594 q 0,-3.10547 -1.21094,-4.64844 -1.21094,-1.54297 -3.63281,-1.54297 -2.91016,0 -4.58985,1.85547 -1.67968,1.85547 -1.67968,5.0586 v 12.36328 h -3.61329 v -30.39063 h 3.61329 v 11.91407 q 1.28906,-1.97266 3.02734,-2.94922 1.75781,-0.97657 4.04297,-0.97657 3.76953,0 5.70312,2.34375 1.9336,2.32422 1.9336,6.85547 z"
         id="path20"
         inkscape:connector-curvature="0" />
      <path
         d="m 500.32617,280.95312 q -4.35547,0 -6.03515,0.9961 -1.67969,0.99609 -1.67969,3.39844 0,1.91406 1.25,3.04687 1.26953,1.11328 3.4375,1.11328 2.98828,0 4.78515,-2.10937 1.81641,-2.12891 1.81641,-5.64453 v -0.80079 z m 7.16797,-1.48437 v 12.48047 h -3.59375 v -3.32031 q -1.23047,1.99218 -3.06641,2.94921 -1.83593,0.9375 -4.49218,0.9375 -3.35938,0 -5.35157,-1.875 -1.97265,-1.89453 -1.97265,-5.05859 0,-3.69141 2.46094,-5.56641 2.48046,-1.875 7.38281,-1.875 h 5.03906 v -0.35156 q 0,-2.48047 -1.64062,-3.82812 -1.6211,-1.36719 -4.57032,-1.36719 -1.875,0 -3.65234,0.44922 -1.77734,0.44922 -3.41797,1.34765 v -3.32031 q 1.97266,-0.76172 3.82813,-1.13281 1.85546,-0.39063 3.61328,-0.39063 4.74609,0 7.08984,2.46094 2.34375,2.46094 2.34375,7.46094 z"
         id="path22"
         inkscape:connector-curvature="0" />
    </g>
  </g>
</svg>
